<mxfile host="drawio-plugin" modified="2021-12-08T03:43:12.307Z" agent="5.0 (Windows NT 6.2; Win64; x64) AppleWebKit/537.36 (KHTML, like Gecko) Chrome/89.0.4389.114 Safari/537.36" version="14.7.4" etag="84GK5YOLT5AOishv1Uvr" type="embed"><diagram id="GHt6or0gsbjSwW8QOsg4" name="Page-1"><mxGraphModel dx="1228" dy="652" grid="1" gridSize="10" guides="1" tooltips="1" connect="1" arrows="1" fold="1" page="1" pageScale="1" pageWidth="827" pageHeight="1169" math="0" shadow="0"><root><mxCell id="0"/><mxCell id="1" parent="0"/><mxCell id="68" value="" style="rounded=1;whiteSpace=wrap;html=1;fillColor=#f0a30a;strokeColor=#BD7000;fontColor=#000000;" vertex="1" parent="1"><mxGeometry x="280" y="654" width="400" height="160" as="geometry"/></mxCell><mxCell id="51" value="" style="rounded=1;whiteSpace=wrap;html=1;fillColor=#e1d5e7;strokeColor=#9673a6;" vertex="1" parent="1"><mxGeometry x="428.5" y="379" width="120" height="230" as="geometry"/></mxCell><mxCell id="49" value="" style="ellipse;whiteSpace=wrap;html=1;fillColor=#f8cecc;strokeColor=#b85450;" vertex="1" parent="1"><mxGeometry x="701" y="404" width="330" height="180" as="geometry"/></mxCell><mxCell id="46" value="" style="rounded=1;whiteSpace=wrap;html=1;fillColor=#ffe6cc;strokeColor=#d79b00;" vertex="1" parent="1"><mxGeometry x="1118.5" y="294" width="120" height="520" as="geometry"/></mxCell><mxCell id="35" style="edgeStyle=orthogonalEdgeStyle;rounded=0;orthogonalLoop=1;jettySize=auto;html=1;exitX=0;exitY=0.75;exitDx=0;exitDy=0;entryX=1;entryY=0.75;entryDx=0;entryDy=0;" edge="1" parent="1" source="2" target="27"><mxGeometry relative="1" as="geometry"/></mxCell><mxCell id="2" value="主板(Linux 系统)" style="rounded=0;whiteSpace=wrap;html=1;" vertex="1" parent="1"><mxGeometry x="921" y="599" width="120" height="60" as="geometry"/></mxCell><mxCell id="3" value="治具(Linux 系统)" style="rounded=0;whiteSpace=wrap;html=1;" vertex="1" parent="1"><mxGeometry x="921" y="294" width="120" height="60" as="geometry"/></mxCell><mxCell id="11" value="节点" style="ellipse;whiteSpace=wrap;html=1;" vertex="1" parent="1"><mxGeometry x="451" y="399" width="75" height="50" as="geometry"/></mxCell><mxCell id="12" value="节点" style="ellipse;whiteSpace=wrap;html=1;" vertex="1" parent="1"><mxGeometry x="451" y="469" width="75" height="50" as="geometry"/></mxCell><mxCell id="13" value="节点" style="ellipse;whiteSpace=wrap;html=1;" vertex="1" parent="1"><mxGeometry x="451" y="534" width="75" height="50" as="geometry"/></mxCell><mxCell id="14" value="&lt;h1&gt;物模型&lt;/h1&gt;&lt;p&gt;1. property：DI、DO、PO、AI、EAI&lt;/p&gt;&lt;p&gt;2. service：&lt;span style=&quot;color: rgb(135 , 16 , 148) ; font-style: italic ; background-color: rgb(255 , 255 , 255) ; font-family: &amp;#34;jetbrains mono&amp;#34; , monospace ; font-size: 9pt&quot;&gt;GetDeviceInfo、&lt;/span&gt;&lt;span style=&quot;color: rgb(135 , 16 , 148) ; font-style: italic ; background-color: rgb(255 , 255 , 255) ; font-family: &amp;#34;jetbrains mono&amp;#34; , monospace ; font-size: 9pt&quot;&gt;GetTotalProperty、&lt;/span&gt;&lt;span style=&quot;color: rgb(135 , 16 , 148) ; font-style: italic ; background-color: rgb(255 , 255 , 255) ; font-family: &amp;#34;jetbrains mono&amp;#34; , monospace ; font-size: 9pt&quot;&gt;GetProperty、&lt;/span&gt;&lt;span style=&quot;color: rgb(135 , 16 , 148) ; font-style: italic ; background-color: rgb(255 , 255 , 255) ; font-family: &amp;#34;jetbrains mono&amp;#34; , monospace ; font-size: 9pt&quot;&gt;SetProperty、&lt;/span&gt;&lt;span style=&quot;color: rgb(135 , 16 , 148) ; font-style: italic ; background-color: rgb(255 , 255 , 255) ; font-family: &amp;#34;jetbrains mono&amp;#34; , monospace ; font-size: 9pt&quot;&gt;SetCmd&lt;/span&gt;&lt;/p&gt;" style="text;html=1;strokeColor=none;fillColor=none;spacing=5;spacingTop=-20;whiteSpace=wrap;overflow=hidden;rounded=0;" vertex="1" parent="1"><mxGeometry x="271" y="270" width="532.5" height="120" as="geometry"/></mxCell><mxCell id="16" value="" style="endArrow=none;dashed=1;html=1;dashPattern=1 3;strokeWidth=2;" edge="1" parent="1" source="14" target="3"><mxGeometry width="50" height="50" relative="1" as="geometry"><mxPoint x="601" y="534" as="sourcePoint"/><mxPoint x="651" y="484" as="targetPoint"/></mxGeometry></mxCell><mxCell id="18" value="&lt;h1&gt;物模型&lt;/h1&gt;&lt;p&gt;1.property：&lt;span style=&quot;background-color: rgb(255 , 255 , 255) ; color: rgb(8 , 8 , 8) ; font-family: &amp;#34;jetbrains mono&amp;#34; , monospace ; font-size: 9pt&quot;&gt;LineVelocity、&lt;/span&gt;&lt;span style=&quot;background-color: rgb(255 , 255 , 255) ; color: rgb(8 , 8 , 8) ; font-family: &amp;#34;jetbrains mono&amp;#34; , monospace ; font-size: 9pt&quot;&gt;AngularVelocity、&lt;/span&gt;&lt;span style=&quot;background-color: rgb(255 , 255 , 255) ; color: rgb(8 , 8 , 8) ; font-family: &amp;#34;jetbrains mono&amp;#34; , monospace ; font-size: 9pt&quot;&gt;AngularPos ...&lt;/span&gt;&lt;/p&gt;&lt;p&gt;&lt;span style=&quot;background-color: rgb(255 , 255 , 255) ; color: rgb(8 , 8 , 8) ; font-family: &amp;#34;jetbrains mono&amp;#34; , monospace ; font-size: 9pt&quot;&gt;2.service:&lt;/span&gt;&lt;span style=&quot;color: rgb(135 , 16 , 148) ; font-style: italic ; background-color: rgb(255 , 255 , 255) ; font-family: &amp;#34;jetbrains mono&amp;#34; , monospace ; font-size: 9pt&quot;&gt;GetDeviceInfo、&lt;/span&gt;&lt;span style=&quot;color: rgb(135 , 16 , 148) ; font-style: italic ; background-color: rgb(255 , 255 , 255) ; font-family: &amp;#34;jetbrains mono&amp;#34; , monospace ; font-size: 9pt&quot;&gt;GetTotalProperty、&lt;/span&gt;&lt;span style=&quot;color: rgb(135 , 16 , 148) ; font-style: italic ; background-color: rgb(255 , 255 , 255) ; font-family: &amp;#34;jetbrains mono&amp;#34; , monospace ; font-size: 9pt&quot;&gt;SystemExecute、&lt;/span&gt;&lt;span style=&quot;color: rgb(135 , 16 , 148) ; font-style: italic ; background-color: rgb(255 , 255 , 255) ; font-family: &amp;#34;jetbrains mono&amp;#34; , monospace ; font-size: 9pt&quot;&gt;GetComConfig ...&lt;/span&gt;&lt;/p&gt;" style="text;html=1;strokeColor=none;fillColor=none;spacing=5;spacingTop=-20;whiteSpace=wrap;overflow=hidden;rounded=0;" vertex="1" parent="1"><mxGeometry x="721" y="764" width="520" height="120" as="geometry"/></mxCell><mxCell id="19" value="" style="endArrow=none;dashed=1;html=1;dashPattern=1 3;strokeWidth=2;" edge="1" parent="1" source="2" target="18"><mxGeometry width="50" height="50" relative="1" as="geometry"><mxPoint x="991" y="424" as="sourcePoint"/><mxPoint x="1041" y="374" as="targetPoint"/></mxGeometry></mxCell><mxCell id="20" value="传感器" style="ellipse;whiteSpace=wrap;html=1;" vertex="1" parent="1"><mxGeometry x="1141" y="534" width="75" height="50" as="geometry"/></mxCell><mxCell id="21" value="开关" style="ellipse;whiteSpace=wrap;html=1;" vertex="1" parent="1"><mxGeometry x="1141" y="604" width="75" height="50" as="geometry"/></mxCell><mxCell id="22" value="边刷" style="ellipse;whiteSpace=wrap;html=1;" vertex="1" parent="1"><mxGeometry x="1141" y="399" width="75" height="50" as="geometry"/></mxCell><mxCell id="24" value="" style="endArrow=classic;html=1;entryX=1;entryY=0.25;entryDx=0;entryDy=0;" edge="1" parent="1" source="20" target="2"><mxGeometry width="50" height="50" relative="1" as="geometry"><mxPoint x="1071" y="604" as="sourcePoint"/><mxPoint x="1061" y="664" as="targetPoint"/></mxGeometry></mxCell><mxCell id="25" value="" style="endArrow=classic;html=1;entryX=1;entryY=0.5;entryDx=0;entryDy=0;" edge="1" parent="1" source="21" target="2"><mxGeometry width="50" height="50" relative="1" as="geometry"><mxPoint x="1051" y="744" as="sourcePoint"/><mxPoint x="1101" y="694" as="targetPoint"/></mxGeometry></mxCell><mxCell id="26" value="" style="endArrow=classic;html=1;" edge="1" parent="1" source="22" target="2"><mxGeometry width="50" height="50" relative="1" as="geometry"><mxPoint x="1061" y="734" as="sourcePoint"/><mxPoint x="1111" y="684" as="targetPoint"/></mxGeometry></mxCell><mxCell id="34" style="edgeStyle=orthogonalEdgeStyle;rounded=0;orthogonalLoop=1;jettySize=auto;html=1;exitX=1;exitY=0.25;exitDx=0;exitDy=0;entryX=0;entryY=0.25;entryDx=0;entryDy=0;" edge="1" parent="1" source="27" target="2"><mxGeometry relative="1" as="geometry"/></mxCell><mxCell id="27" value="WIFI模块" style="rounded=0;whiteSpace=wrap;html=1;" vertex="1" parent="1"><mxGeometry x="741" y="599" width="120" height="60" as="geometry"/></mxCell><mxCell id="30" value="Actor" style="shape=umlActor;verticalLabelPosition=bottom;verticalAlign=top;html=1;outlineConnect=0;" vertex="1" parent="1"><mxGeometry x="786" y="449" width="30" height="60" as="geometry"/></mxCell><mxCell id="32" value="" style="endArrow=classic;html=1;" edge="1" parent="1" source="30" target="27"><mxGeometry width="50" height="50" relative="1" as="geometry"><mxPoint x="751" y="594" as="sourcePoint"/><mxPoint x="801" y="544" as="targetPoint"/></mxGeometry></mxCell><mxCell id="33" value="指令控制" style="edgeLabel;html=1;align=center;verticalAlign=middle;resizable=0;points=[];" vertex="1" connectable="0" parent="32"><mxGeometry x="-0.3307" relative="1" as="geometry"><mxPoint y="22" as="offset"/></mxGeometry></mxCell><mxCell id="36" value="单片机" style="ellipse;whiteSpace=wrap;html=1;" vertex="1" parent="1"><mxGeometry x="1141" y="674" width="75" height="50" as="geometry"/></mxCell><mxCell id="38" value="" style="endArrow=classic;html=1;entryX=1;entryY=0.75;entryDx=0;entryDy=0;" edge="1" parent="1" source="36" target="2"><mxGeometry width="50" height="50" relative="1" as="geometry"><mxPoint x="1041" y="734" as="sourcePoint"/><mxPoint x="1091" y="684" as="targetPoint"/></mxGeometry></mxCell><mxCell id="55" style="edgeStyle=orthogonalEdgeStyle;rounded=0;orthogonalLoop=1;jettySize=auto;html=1;exitX=0.5;exitY=0;exitDx=0;exitDy=0;entryX=0.5;entryY=1;entryDx=0;entryDy=0;" edge="1" parent="1" source="39" target="36"><mxGeometry relative="1" as="geometry"/></mxCell><mxCell id="39" value="传感器" style="ellipse;whiteSpace=wrap;html=1;" vertex="1" parent="1"><mxGeometry x="1141" y="744" width="75" height="50" as="geometry"/></mxCell><mxCell id="42" value="......" style="ellipse;whiteSpace=wrap;html=1;" vertex="1" parent="1"><mxGeometry x="1141" y="464" width="75" height="50" as="geometry"/></mxCell><mxCell id="43" value="" style="endArrow=classic;html=1;entryX=1;entryY=0;entryDx=0;entryDy=0;" edge="1" parent="1" source="42" target="2"><mxGeometry width="50" height="50" relative="1" as="geometry"><mxPoint x="1061" y="574" as="sourcePoint"/><mxPoint x="1111" y="524" as="targetPoint"/></mxGeometry></mxCell><mxCell id="44" value="" style="endArrow=classic;html=1;" edge="1" parent="1" source="30"><mxGeometry width="50" height="50" relative="1" as="geometry"><mxPoint x="911" y="454" as="sourcePoint"/><mxPoint x="1119" y="480" as="targetPoint"/></mxGeometry></mxCell><mxCell id="45" value="触发故障" style="edgeLabel;html=1;align=center;verticalAlign=middle;resizable=0;points=[];" vertex="1" connectable="0" parent="44"><mxGeometry x="-0.0864" y="1" relative="1" as="geometry"><mxPoint x="-74" y="3" as="offset"/></mxGeometry></mxCell><mxCell id="48" value="" style="shape=flexArrow;endArrow=classic;startArrow=classic;html=1;dashed=1;entryX=0.007;entryY=0.06;entryDx=0;entryDy=0;entryPerimeter=0;" edge="1" parent="1" source="3" target="46"><mxGeometry width="100" height="100" relative="1" as="geometry"><mxPoint x="1038.5" y="343.29" as="sourcePoint"/><mxPoint x="1111" y="324" as="targetPoint"/></mxGeometry></mxCell><mxCell id="50" value="" style="endArrow=classic;html=1;dashed=1;" edge="1" parent="1" source="3" target="2"><mxGeometry width="50" height="50" relative="1" as="geometry"><mxPoint x="531" y="494" as="sourcePoint"/><mxPoint x="581" y="444" as="targetPoint"/></mxGeometry></mxCell><mxCell id="52" value="" style="shape=flexArrow;endArrow=classic;startArrow=classic;html=1;dashed=1;" edge="1" parent="1" source="51" target="49"><mxGeometry width="100" height="100" relative="1" as="geometry"><mxPoint x="571" y="484" as="sourcePoint"/><mxPoint x="681" y="474" as="targetPoint"/></mxGeometry></mxCell><mxCell id="54" value="" style="endArrow=classic;html=1;fillColor=#6a00ff;strokeColor=#3700CC;" edge="1" parent="1" source="51" target="3"><mxGeometry width="50" height="50" relative="1" as="geometry"><mxPoint x="621" y="444" as="sourcePoint"/><mxPoint x="671" y="394" as="targetPoint"/></mxGeometry></mxCell><mxCell id="58" style="edgeStyle=orthogonalEdgeStyle;rounded=0;orthogonalLoop=1;jettySize=auto;html=1;exitX=1;exitY=0.25;exitDx=0;exitDy=0;entryX=0;entryY=0.25;entryDx=0;entryDy=0;dashed=1;" edge="1" parent="1" source="56" target="57"><mxGeometry relative="1" as="geometry"/></mxCell><mxCell id="59" style="edgeStyle=orthogonalEdgeStyle;rounded=0;orthogonalLoop=1;jettySize=auto;html=1;exitX=1;exitY=0.5;exitDx=0;exitDy=0;entryX=0;entryY=0.5;entryDx=0;entryDy=0;dashed=1;" edge="1" parent="1" source="56" target="57"><mxGeometry relative="1" as="geometry"/></mxCell><mxCell id="60" style="edgeStyle=orthogonalEdgeStyle;rounded=0;orthogonalLoop=1;jettySize=auto;html=1;exitX=1;exitY=0.75;exitDx=0;exitDy=0;entryX=0;entryY=0.75;entryDx=0;entryDy=0;dashed=1;" edge="1" parent="1" source="56" target="57"><mxGeometry relative="1" as="geometry"/></mxCell><mxCell id="65" style="edgeStyle=orthogonalEdgeStyle;rounded=0;orthogonalLoop=1;jettySize=auto;html=1;exitX=1;exitY=0;exitDx=0;exitDy=0;entryX=0;entryY=0;entryDx=0;entryDy=0;dashed=1;" edge="1" parent="1" source="56" target="57"><mxGeometry relative="1" as="geometry"/></mxCell><mxCell id="66" style="edgeStyle=orthogonalEdgeStyle;rounded=0;orthogonalLoop=1;jettySize=auto;html=1;exitX=1;exitY=1;exitDx=0;exitDy=0;entryX=0;entryY=1;entryDx=0;entryDy=0;dashed=1;" edge="1" parent="1" source="56" target="57"><mxGeometry relative="1" as="geometry"/></mxCell><mxCell id="56" value="治具" style="rounded=0;whiteSpace=wrap;html=1;" vertex="1" parent="1"><mxGeometry x="294.25" y="708" width="120" height="60" as="geometry"/></mxCell><mxCell id="61" style="edgeStyle=orthogonalEdgeStyle;rounded=0;orthogonalLoop=1;jettySize=auto;html=1;exitX=0;exitY=0.25;exitDx=0;exitDy=0;entryX=1;entryY=0.25;entryDx=0;entryDy=0;dashed=1;" edge="1" parent="1" source="57" target="56"><mxGeometry relative="1" as="geometry"/></mxCell><mxCell id="62" style="edgeStyle=orthogonalEdgeStyle;rounded=0;orthogonalLoop=1;jettySize=auto;html=1;exitX=0;exitY=0.5;exitDx=0;exitDy=0;entryX=1;entryY=0.5;entryDx=0;entryDy=0;dashed=1;" edge="1" parent="1" source="57" target="56"><mxGeometry relative="1" as="geometry"/></mxCell><mxCell id="63" style="edgeStyle=orthogonalEdgeStyle;rounded=0;orthogonalLoop=1;jettySize=auto;html=1;exitX=0;exitY=0.75;exitDx=0;exitDy=0;entryX=1;entryY=0.75;entryDx=0;entryDy=0;dashed=1;" edge="1" parent="1" source="57" target="56"><mxGeometry relative="1" as="geometry"/></mxCell><mxCell id="64" style="edgeStyle=orthogonalEdgeStyle;rounded=0;orthogonalLoop=1;jettySize=auto;html=1;exitX=0;exitY=0;exitDx=0;exitDy=0;entryX=1;entryY=0;entryDx=0;entryDy=0;dashed=1;" edge="1" parent="1" source="57" target="56"><mxGeometry relative="1" as="geometry"/></mxCell><mxCell id="67" style="edgeStyle=orthogonalEdgeStyle;rounded=0;orthogonalLoop=1;jettySize=auto;html=1;exitX=0;exitY=1;exitDx=0;exitDy=0;entryX=1;entryY=1;entryDx=0;entryDy=0;dashed=1;" edge="1" parent="1" source="57" target="56"><mxGeometry relative="1" as="geometry"/></mxCell><mxCell id="57" value="主板" style="rounded=0;whiteSpace=wrap;html=1;" vertex="1" parent="1"><mxGeometry x="542.75" y="708" width="120" height="60" as="geometry"/></mxCell><mxCell id="69" value="治具和主板引脚对应关系" style="text;html=1;align=center;verticalAlign=middle;resizable=0;points=[];autosize=1;strokeColor=none;" vertex="1" parent="1"><mxGeometry x="405" y="828" width="150" height="20" as="geometry"/></mxCell></root></mxGraphModel></diagram></mxfile>